# xmcd
#
# Track frame offsets:
#	150
#	5169
#	23017
#	41670
#	53948
#	69780
#	84481
#	105777
#	124522
#	140981
#	158621
#	182628
#	196540
#	207258
#	221993
#	237049
#	250183
#	265396
#	279568
#	298493
#	315714
#	334524
#
# Disc length: 4654 seconds
#
# Revision: 0
# Processed by: cddbd v1.5.2PL0 Copyright (c) Steve Scherf et al.
# Submitted via: audiograbber 1.83.01
#
DISCID=3e122c16
DTITLE=Komasampler - Plüschdarm
DYEAR=2009
DGENRE=Alternative
TTITLE0=Nobelpenner - Verarscht
TTITLE1=Alice In Chains - Check My Brain
TTITLE2=Cypress Hill - How I Could Just Kill A Man
TTITLE3=The Subways - Shake! Shake!
TTITLE4=CKY - ...And She Never Returned
TTITLE5=Bloc Party - Hunting For Witches
TTITLE6=The Tings Tings - That's Not My Name
TTITLE7=Tina Dico - Count to ten
TTITLE8=Ferris MC - Flash For Ferris MC
TTITLE9=Falco - Vienna Calling
TTITLE10=The Natural Craze - Less
TTITLE11=Gnarls Barkley - Smiley Faces
TTITLE12=Fecal Matter - Blather's Log
TTITLE13=Bad Religion - American Jesus
TTITLE14=Alexander Marcus - Homo Dance
TTITLE15=Beck - Truckdrivin Neighbors Downstai
TTITLE16=Kings Of Leon - Sex On Fire
TTITLE17=For Love Not Lisa - Had A Lover
TTITLE18=The Do - On My Shoulders
TTITLE19=Spin Doctors - Little Miss Can't Be Wrong (Album Version)
TTITLE20=Eve's Plum - I Want It All
TTITLE21=Jeans Team - Keine Melodien
EXTD=
EXTT0=
EXTT1=
EXTT2=
EXTT3=
EXTT4=
EXTT5=
EXTT6=
EXTT7=
EXTT8=
EXTT9=
EXTT10=
EXTT11=
EXTT12=
EXTT13=
EXTT14=
EXTT15=
EXTT16=
EXTT17=
EXTT18=
EXTT19=
EXTT20=
EXTT21=
PLAYORDER=
